<?xml version="1.0" standalone="no"?>
 <!DOCTYPE svg PUBLIC "-//W3C//DTD SVG 1.1//EN" 
 "http://www.w3.org/Graphics/SVG/1.1/DTD/svg11.dtd"> 
<svg xmlns="http://www.w3.org/2000/svg" version="1.1" 
    width="29.7002cm" height="21.0007cm" viewBox="0 0 116930 82680 ">
<title>SVG Picture created as atmega88-mini-demo-board-Cmts_User.svg date 2020/06/02 13:26:09 </title>
  <desc>Picture generated by PCBNEW </desc>
<g style="fill:#000000; fill-opacity:1;stroke:#000000; stroke-opacity:1;
stroke-linecap:round; stroke-linejoin:round; "
 transform="translate(0 0) scale(1 1)">
</g>
<g style="fill:#000000; fill-opacity:0.0; 
stroke:#000000; stroke-width:-0.000393701; stroke-opacity:1; 
stroke-linecap:round; stroke-linejoin:round;">
</g>
<g style="fill:#000000; fill-opacity:0.0; 
stroke:#000000; stroke-width:59.0551; stroke-opacity:1; 
stroke-linecap:round; stroke-linejoin:round;">
<circle cx="74780" cy="51245" r="374.016" /> 
<circle cx="62780" cy="42439" r="374.016" /> 
<circle cx="62780" cy="42439" r="177.165" /> 
<circle cx="74780" cy="51245" r="177.165" /> 
<circle cx="75780" cy="39245" r="177.165" /> 
<circle cx="75780" cy="39245" r="374.016" /> 
</g>
<g style="fill:#000000; fill-opacity:0.0; 
stroke:#000000; stroke-width:19.685; stroke-opacity:1; 
stroke-linecap:round; stroke-linejoin:round;">
<path d="M78980 55400
L78980 36000
" />
<path d="M60680 55350
L78980 55400
" />
<path d="M60680 36000
L60680 55350
" />
<path d="M78980 36000
L60680 36000
" />
</g>
<g style="fill:#000000; fill-opacity:0.0; 
stroke:#000000; stroke-width:59.0551; stroke-opacity:1; 
stroke-linecap:round; stroke-linejoin:round;">
<g transform="rotate(90 63583.4 52086)">
<text x="63583.4" y="52282.9"
textLength="1801.56" font-size="524.934" lengthAdjust="spacingAndGlyphs"
text-anchor="start" opacity="0">MISO </text>
</g>
<path d="M63761 52218
L63367 52218
L63649 52349
L63367 52480
L63761 52480
" />
<path d="M63761 52668
L63367 52668
" />
<path d="M63742 52836
L63761 52893
L63761 52986
L63742 53024
L63724 53043
L63686 53061
L63649 53061
L63611 53043
L63592 53024
L63574 52986
L63555 52911
L63536 52874
L63517 52855
L63480 52836
L63442 52836
L63405 52855
L63386 52874
L63367 52911
L63367 53005
L63386 53061
" />
<path d="M63367 53305
L63367 53380
L63386 53417
L63424 53455
L63499 53474
L63630 53474
L63705 53455
L63742 53417
L63761 53380
L63761 53305
L63742 53267
L63705 53230
L63630 53211
L63499 53211
L63424 53230
L63386 53267
L63367 53305
" />
<g transform="rotate(90 64233 52086)">
<text x="64233" y="52282.9"
textLength="1239.13" font-size="524.934" lengthAdjust="spacingAndGlyphs"
text-anchor="start" opacity="0">SCK</text>
</g>
<path d="M64392 52199
L64411 52255
L64411 52349
L64392 52386
L64373 52405
L64336 52424
L64298 52424
L64261 52405
L64242 52386
L64223 52349
L64204 52274
L64186 52236
L64167 52218
L64129 52199
L64092 52199
L64054 52218
L64036 52236
L64017 52274
L64017 52368
L64036 52424
" />
<path d="M64373 52818
L64392 52799
L64411 52743
L64411 52705
L64392 52649
L64354 52611
L64317 52593
L64242 52574
L64186 52574
L64111 52593
L64073 52611
L64036 52649
L64017 52705
L64017 52743
L64036 52799
L64054 52818
" />
<path d="M64411 52986
L64017 52986
" />
<path d="M64411 53211
L64186 53043
" />
<path d="M64017 53211
L64242 52986
" />
<g transform="rotate(90 64882.6 52086)">
<text x="64882.6" y="52282.9"
textLength="1201.63" font-size="524.934" lengthAdjust="spacingAndGlyphs"
text-anchor="start" opacity="0">~RES~</text>
</g>
<path d="M64522 52124
L64522 52518
" />
<path d="M65060 52443
L64873 52311
" />
<path d="M65060 52218
L64667 52218
L64667 52368
L64685 52405
L64704 52424
L64741 52443
L64798 52443
L64835 52424
L64854 52405
L64873 52368
L64873 52218
" />
<path d="M64522 52518
L64522 52874
" />
<path d="M64854 52611
L64854 52743
" />
<path d="M65060 52799
L65060 52611
L64667 52611
L64667 52799
" />
<path d="M64522 52874
L64522 53249
" />
<path d="M65041 52949
L65060 53005
L65060 53099
L65041 53136
L65023 53155
L64985 53174
L64948 53174
L64910 53155
L64891 53136
L64873 53099
L64854 53024
L64835 52986
L64816 52968
L64779 52949
L64741 52949
L64704 52968
L64685 52986
L64667 53024
L64667 53118
L64685 53174
" />
<g transform="rotate(90 63583.4 54918)">
<text x="63583.4" y="55114.9"
textLength="1201.63" font-size="524.934" lengthAdjust="spacingAndGlyphs"
text-anchor="end" opacity="0">VCC</text>
</g>
<path d="M63367 53792
L63761 53923
L63367 54054
" />
<path d="M63724 54410
L63742 54392
L63761 54335
L63761 54298
L63742 54242
L63705 54204
L63667 54185
L63592 54167
L63536 54167
L63461 54185
L63424 54204
L63386 54242
L63367 54298
L63367 54335
L63386 54392
L63405 54410
" />
<path d="M63724 54804
L63742 54785
L63761 54729
L63761 54692
L63742 54635
L63705 54598
L63667 54579
L63592 54560
L63536 54560
L63461 54579
L63424 54598
L63386 54635
L63367 54692
L63367 54729
L63386 54785
L63405 54804
" />
<g transform="rotate(90 64233 54918)">
<text x="64233" y="55114.9"
textLength="1501.59" font-size="524.934" lengthAdjust="spacingAndGlyphs"
text-anchor="end" opacity="0">MOSI</text>
</g>
<path d="M64411 53548
L64017 53548
L64298 53679
L64017 53810
L64411 53810
" />
<path d="M64017 54073
L64017 54148
L64036 54185
L64073 54223
L64148 54242
L64279 54242
L64354 54223
L64392 54185
L64411 54148
L64411 54073
L64392 54035
L64354 53998
L64279 53979
L64148 53979
L64073 53998
L64036 54035
L64017 54073
" />
<path d="M64392 54392
L64411 54448
L64411 54542
L64392 54579
L64373 54598
L64336 54617
L64298 54617
L64261 54598
L64242 54579
L64223 54542
L64204 54467
L64186 54429
L64167 54410
L64129 54392
L64092 54392
L64054 54410
L64036 54429
L64017 54467
L64017 54560
L64036 54617
" />
<path d="M64411 54785
L64017 54785
" />
<g transform="rotate(90 64882.6 54918)">
<text x="64882.6" y="55114.9"
textLength="1276.62" font-size="524.934" lengthAdjust="spacingAndGlyphs"
text-anchor="end" opacity="0">GND</text>
</g>
<path d="M64685 53979
L64667 53942
L64667 53885
L64685 53829
L64723 53792
L64760 53773
L64835 53754
L64891 53754
L64966 53773
L65004 53792
L65041 53829
L65060 53885
L65060 53923
L65041 53979
L65023 53998
L64891 53998
L64891 53923
" />
<path d="M65060 54167
L64667 54167
L65060 54392
L64667 54392
" />
<path d="M65060 54579
L64667 54579
L64667 54673
L64685 54729
L64723 54767
L64760 54785
L64835 54804
L64891 54804
L64966 54785
L65004 54767
L65041 54729
L65060 54673
L65060 54579
" />
<g transform="rotate(90 62773 51845)">
<text x="62773" y="52041.9"
textLength="1276.62" font-size="524.934" lengthAdjust="spacingAndGlyphs"
text-anchor="middle" opacity="0">+5V</text>
</g>
<path d="M62801 51338
L62801 51638
" />
<path d="M62951 51488
L62651 51488
" />
<path d="M62557 52013
L62557 51826
L62744 51807
L62726 51826
L62707 51863
L62707 51957
L62726 51994
L62744 52013
L62782 52032
L62876 52032
L62913 52013
L62932 51994
L62951 51957
L62951 51863
L62932 51826
L62913 51807
" />
<path d="M62557 52144
L62951 52276
L62557 52407
" />
<g transform="rotate(90 72976 43187)">
<text x="72976" y="43383.9"
textLength="1857.8" font-size="524.934" lengthAdjust="spacingAndGlyphs"
text-anchor="middle" opacity="0">RESET</text>
</g>
<path d="M73154 42615
L72966 42483
" />
<path d="M73154 42390
L72760 42390
L72760 42540
L72779 42577
L72797 42596
L72835 42615
L72891 42615
L72929 42596
L72947 42577
L72966 42540
L72966 42390
" />
<path d="M72947 42783
L72947 42915
" />
<path d="M73154 42971
L73154 42783
L72760 42783
L72760 42971
" />
<path d="M73135 43121
L73154 43177
L73154 43271
L73135 43308
L73116 43327
L73079 43346
L73041 43346
L73004 43327
L72985 43308
L72966 43271
L72947 43196
L72929 43158
L72910 43140
L72872 43121
L72835 43121
L72797 43140
L72779 43158
L72760 43196
L72760 43290
L72779 43346
" />
<path d="M72947 43515
L72947 43646
" />
<path d="M73154 43702
L73154 43515
L72760 43515
L72760 43702
" />
<path d="M72760 43815
L72760 44040
" />
<path d="M73154 43927
L72760 43927
" />
<g transform="rotate(90 73783 36966)">
<text x="73783" y="37162.9"
textLength="1276.62" font-size="524.934" lengthAdjust="spacingAndGlyphs"
text-anchor="middle" opacity="0">GND</text>
</g>
<path d="M73586 36666
L73567 36628
L73567 36572
L73586 36516
L73623 36478
L73661 36459
L73736 36441
L73792 36441
L73867 36459
L73904 36478
L73942 36516
L73961 36572
L73961 36609
L73942 36666
L73923 36684
L73792 36684
L73792 36609
" />
<path d="M73961 36853
L73567 36853
L73961 37078
L73567 37078
" />
<path d="M73961 37265
L73567 37265
L73567 37359
L73586 37415
L73623 37453
L73661 37472
L73736 37490
L73792 37490
L73867 37472
L73904 37453
L73942 37415
L73961 37359
L73961 37265
" />
<g transform="rotate(90 69950 47314)">
<text x="69950" y="47510.9"
textLength="2082.77" font-size="524.934" lengthAdjust="spacingAndGlyphs"
text-anchor="middle" opacity="0">POWER</text>
</g>
<path d="M70128 46404
L69734 46404
L69734 46554
L69753 46592
L69771 46610
L69809 46629
L69865 46629
L69903 46610
L69921 46592
L69940 46554
L69940 46404
" />
<path d="M69734 46873
L69734 46948
L69753 46985
L69790 47023
L69865 47042
L69996 47042
L70071 47023
L70109 46985
L70128 46948
L70128 46873
L70109 46835
L70071 46798
L69996 46779
L69865 46779
L69790 46798
L69753 46835
L69734 46873
" />
<path d="M69734 47173
L70128 47267
L69846 47342
L70128 47417
L69734 47510
" />
<path d="M69921 47660
L69921 47792
" />
<path d="M70128 47848
L70128 47660
L69734 47660
L69734 47848
" />
<path d="M70128 48242
L69940 48110
" />
<path d="M70128 48017
L69734 48017
L69734 48167
L69753 48204
L69771 48223
L69809 48242
L69865 48242
L69903 48223
L69921 48204
L69940 48167
L69940 48017
" />
<text x="78052" y="39440.9"
textLength="1182.88" font-size="524.934" lengthAdjust="spacingAndGlyphs"
text-anchor="middle" opacity="0">SDA</text>
<path d="M78530 39403
L78473 39422
L78380 39422
L78342 39403
L78323 39384
L78305 39347
L78305 39309
L78323 39272
L78342 39253
L78380 39234
L78455 39215
L78492 39197
L78511 39178
L78530 39140
L78530 39103
L78511 39065
L78492 39047
L78455 39028
L78361 39028
L78305 39047
" />
<path d="M78136 39422
L78136 39028
L78042 39028
L77986 39047
L77948 39084
L77930 39122
L77911 39197
L77911 39253
L77930 39328
L77948 39365
L77986 39403
L78042 39422
L78136 39422
" />
<path d="M77761 39309
L77573 39309
" />
<path d="M77798 39422
L77667 39028
L77536 39422
" />
<text x="78041" y="40444.9"
textLength="1164.14" font-size="524.934" lengthAdjust="spacingAndGlyphs"
text-anchor="middle" opacity="0">SCL</text>
<path d="M78509 40407
L78453 40426
L78359 40426
L78322 40407
L78303 40388
L78284 40351
L78284 40313
L78303 40276
L78322 40257
L78359 40238
L78434 40219
L78472 40201
L78490 40182
L78509 40144
L78509 40107
L78490 40069
L78472 40051
L78434 40032
L78340 40032
L78284 40051
" />
<path d="M77891 40388
L77909 40407
L77966 40426
L78003 40426
L78059 40407
L78097 40369
L78115 40332
L78134 40257
L78134 40201
L78115 40126
L78097 40088
L78059 40051
L78003 40032
L77966 40032
L77909 40051
L77891 40069
" />
<path d="M77534 40426
L77722 40426
L77722 40032
" />
<text x="78055" y="45438.9"
textLength="1276.62" font-size="524.934" lengthAdjust="spacingAndGlyphs"
text-anchor="middle" opacity="0">GND</text>
<path d="M78354 45045
L78392 45026
L78448 45026
L78504 45045
L78542 45082
L78561 45120
L78579 45195
L78579 45251
L78561 45326
L78542 45363
L78504 45401
L78448 45420
L78411 45420
L78354 45401
L78336 45382
L78336 45251
L78411 45251
" />
<path d="M78167 45420
L78167 45026
L77942 45420
L77942 45026
" />
<path d="M77755 45420
L77755 45026
L77661 45026
L77605 45045
L77567 45082
L77548 45120
L77530 45195
L77530 45251
L77548 45326
L77567 45363
L77605 45401
L77661 45420
L77755 45420
" />
<text x="78035" y="43440.9"
textLength="1164.14" font-size="524.934" lengthAdjust="spacingAndGlyphs"
text-anchor="middle" opacity="0">SCL</text>
<path d="M78503 43403
L78447 43422
L78353 43422
L78316 43403
L78297 43384
L78278 43347
L78278 43309
L78297 43272
L78316 43253
L78353 43234
L78428 43215
L78466 43197
L78484 43178
L78503 43140
L78503 43103
L78484 43065
L78466 43047
L78428 43028
L78334 43028
L78278 43047
" />
<path d="M77885 43384
L77903 43403
L77960 43422
L77997 43422
L78053 43403
L78091 43365
L78109 43328
L78128 43253
L78128 43197
L78109 43122
L78091 43084
L78053 43047
L77997 43028
L77960 43028
L77903 43047
L77885 43065
" />
<path d="M77528 43422
L77716 43422
L77716 43028
" />
<text x="78045" y="44444.9"
textLength="1182.88" font-size="524.934" lengthAdjust="spacingAndGlyphs"
text-anchor="middle" opacity="0">SDA</text>
<path d="M78523 44407
L78466 44426
L78373 44426
L78335 44407
L78316 44388
L78298 44351
L78298 44313
L78316 44276
L78335 44257
L78373 44238
L78448 44219
L78485 44201
L78504 44182
L78523 44144
L78523 44107
L78504 44069
L78485 44051
L78448 44032
L78354 44032
L78298 44051
" />
<path d="M78129 44426
L78129 44032
L78035 44032
L77979 44051
L77941 44088
L77923 44126
L77904 44201
L77904 44257
L77923 44332
L77941 44369
L77979 44407
L78035 44426
L78129 44426
" />
<path d="M77754 44313
L77566 44313
" />
<path d="M77791 44426
L77660 44032
L77529 44426
" />
<g transform="rotate(90 76852 46493)">
<text x="76852" y="46689.9"
textLength="1014.15" font-size="524.934" lengthAdjust="spacingAndGlyphs"
text-anchor="middle" opacity="0">TWI</text>
</g>
<path d="M76636 46061
L76636 46286
" />
<path d="M77030 46174
L76636 46174
" />
<path d="M76636 46380
L77030 46474
L76748 46549
L77030 46624
L76636 46717
" />
<path d="M77030 46867
L76636 46867
" />
<text x="72780" y="50475.9"
textLength="807.93" font-size="524.934" lengthAdjust="spacingAndGlyphs"
text-anchor="middle" opacity="0">b7</text>
<path d="M73051 50457
L73051 50063
" />
<path d="M73051 50213
L73014 50194
L72939 50194
L72901 50213
L72883 50232
L72864 50269
L72864 50382
L72883 50419
L72901 50438
L72939 50457
L73014 50457
L73051 50438
" />
<path d="M72733 50063
L72470 50063
L72639 50457
" />
<text x="65754" y="52450.9"
textLength="807.93" font-size="524.934" lengthAdjust="spacingAndGlyphs"
text-anchor="middle" opacity="0">b0</text>
<path d="M66025 52432
L66025 52038
" />
<path d="M66025 52188
L65988 52169
L65913 52169
L65875 52188
L65857 52207
L65838 52244
L65838 52357
L65857 52394
L65875 52413
L65913 52432
L65988 52432
L66025 52413
" />
<path d="M65594 52038
L65557 52038
L65519 52057
L65500 52075
L65482 52113
L65463 52188
L65463 52282
L65482 52357
L65500 52394
L65519 52413
L65557 52432
L65594 52432
L65632 52413
L65650 52394
L65669 52357
L65688 52282
L65688 52188
L65669 52113
L65650 52075
L65632 52057
L65594 52038
" />
<text x="69725" y="50477.9"
textLength="2270.25" font-size="524.934" lengthAdjust="spacingAndGlyphs"
text-anchor="middle" opacity="0">PORT_B</text>
<path d="M70728 50459
L70728 50065
L70578 50065
L70540 50084
L70521 50102
L70503 50140
L70503 50196
L70521 50234
L70540 50252
L70578 50271
L70728 50271
" />
<path d="M70259 50065
L70184 50065
L70146 50084
L70109 50121
L70090 50196
L70090 50327
L70109 50402
L70146 50440
L70184 50459
L70259 50459
L70296 50440
L70334 50402
L70353 50327
L70353 50196
L70334 50121
L70296 50084
L70259 50065
" />
<path d="M69696 50459
L69828 50271
" />
<path d="M69921 50459
L69921 50065
L69771 50065
L69734 50084
L69715 50102
L69696 50140
L69696 50196
L69715 50234
L69734 50252
L69771 50271
L69921 50271
" />
<path d="M69584 50065
L69359 50065
" />
<path d="M69471 50459
L69471 50065
" />
<path d="M69321 50496
L69021 50496
" />
<path d="M68796 50252
L68740 50271
L68722 50290
L68703 50327
L68703 50384
L68722 50421
L68740 50440
L68778 50459
L68928 50459
L68928 50065
L68796 50065
L68759 50084
L68740 50102
L68722 50140
L68722 50177
L68740 50215
L68759 50234
L68796 50252
L68928 50252
" />
<text x="65779" y="41444.9"
textLength="807.93" font-size="524.934" lengthAdjust="spacingAndGlyphs"
text-anchor="middle" opacity="0">b7</text>
<path d="M66050 41426
L66050 41032
" />
<path d="M66050 41182
L66013 41163
L65938 41163
L65900 41182
L65882 41201
L65863 41238
L65863 41351
L65882 41388
L65900 41407
L65938 41426
L66013 41426
L66050 41407
" />
<path d="M65732 41032
L65469 41032
L65638 41426
" />
<text x="72779" y="41444.9"
textLength="807.93" font-size="524.934" lengthAdjust="spacingAndGlyphs"
text-anchor="middle" opacity="0">b0</text>
<path d="M73050 41426
L73050 41032
" />
<path d="M73050 41182
L73013 41163
L72938 41163
L72900 41182
L72882 41201
L72863 41238
L72863 41351
L72882 41388
L72900 41407
L72938 41426
L73013 41426
L73050 41407
" />
<path d="M72619 41032
L72582 41032
L72544 41051
L72525 41069
L72507 41107
L72488 41182
L72488 41276
L72507 41351
L72525 41388
L72544 41407
L72582 41426
L72619 41426
L72657 41407
L72675 41388
L72694 41351
L72713 41276
L72713 41182
L72694 41107
L72675 41069
L72657 41051
L72619 41032
" />
<text x="69413" y="41442.9"
textLength="2270.25" font-size="524.934" lengthAdjust="spacingAndGlyphs"
text-anchor="middle" opacity="0">PORT_D</text>
<path d="M70416 41424
L70416 41030
L70266 41030
L70228 41049
L70209 41067
L70191 41105
L70191 41161
L70209 41199
L70228 41217
L70266 41236
L70416 41236
" />
<path d="M69947 41030
L69872 41030
L69834 41049
L69797 41086
L69778 41161
L69778 41292
L69797 41367
L69834 41405
L69872 41424
L69947 41424
L69984 41405
L70022 41367
L70041 41292
L70041 41161
L70022 41086
L69984 41049
L69947 41030
" />
<path d="M69384 41424
L69516 41236
" />
<path d="M69609 41424
L69609 41030
L69459 41030
L69422 41049
L69403 41067
L69384 41105
L69384 41161
L69403 41199
L69422 41217
L69459 41236
L69609 41236
" />
<path d="M69272 41030
L69047 41030
" />
<path d="M69159 41424
L69159 41030
" />
<path d="M69009 41461
L68709 41461
" />
<path d="M68616 41424
L68616 41030
L68522 41030
L68466 41049
L68428 41086
L68410 41124
L68391 41199
L68391 41255
L68410 41330
L68428 41367
L68466 41405
L68522 41424
L68616 41424
" />
<g transform="rotate(90 73820 42245)">
<text x="73820" y="42441.9"
textLength="807.93" font-size="524.934" lengthAdjust="spacingAndGlyphs"
text-anchor="middle" opacity="0">b6</text>
</g>
<path d="M73998 41973
L73604 41973
" />
<path d="M73754 41973
L73735 42010
L73735 42085
L73754 42123
L73773 42141
L73810 42160
L73923 42160
L73960 42141
L73979 42123
L73998 42085
L73998 42010
L73979 41973
" />
<path d="M73604 42498
L73604 42423
L73623 42385
L73641 42366
L73698 42329
L73773 42310
L73923 42310
L73960 42329
L73979 42348
L73998 42385
L73998 42460
L73979 42498
L73960 42516
L73923 42535
L73829 42535
L73791 42516
L73773 42498
L73754 42460
L73754 42385
L73773 42348
L73791 42329
L73829 42310
" />
<g transform="rotate(90 73821 48246)">
<text x="73821" y="48442.9"
textLength="807.93" font-size="524.934" lengthAdjust="spacingAndGlyphs"
text-anchor="middle" opacity="0">b0</text>
</g>
<path d="M73999 47974
L73605 47974
" />
<path d="M73755 47974
L73736 48011
L73736 48086
L73755 48124
L73774 48142
L73811 48161
L73924 48161
L73961 48142
L73980 48124
L73999 48086
L73999 48011
L73980 47974
" />
<path d="M73605 48405
L73605 48442
L73624 48480
L73642 48499
L73680 48517
L73755 48536
L73849 48536
L73924 48517
L73961 48499
L73980 48480
L73999 48442
L73999 48405
L73980 48367
L73961 48349
L73924 48330
L73849 48311
L73755 48311
L73680 48330
L73642 48349
L73624 48367
L73605 48405
" />
<g transform="rotate(90 73820 45265)">
<text x="73820" y="45461.9"
textLength="2270.25" font-size="524.934" lengthAdjust="spacingAndGlyphs"
text-anchor="middle" opacity="0">PORT_C</text>
</g>
<path d="M73998 44262
L73604 44262
L73604 44411
L73623 44449
L73641 44468
L73679 44486
L73735 44486
L73773 44468
L73791 44449
L73810 44411
L73810 44262
" />
<path d="M73604 44730
L73604 44805
L73623 44843
L73660 44880
L73735 44899
L73866 44899
L73941 44880
L73979 44843
L73998 44805
L73998 44730
L73979 44693
L73941 44655
L73866 44636
L73735 44636
L73660 44655
L73623 44693
L73604 44730
" />
<path d="M73998 45293
L73810 45161
" />
<path d="M73998 45068
L73604 45068
L73604 45218
L73623 45255
L73641 45274
L73679 45293
L73735 45293
L73773 45274
L73791 45255
L73810 45218
L73810 45068
" />
<path d="M73604 45405
L73604 45630
" />
<path d="M73998 45518
L73604 45518
" />
<path d="M74035 45668
L74035 45968
" />
<path d="M73960 46286
L73979 46267
L73998 46211
L73998 46174
L73979 46118
L73941 46080
L73904 46061
L73829 46043
L73773 46043
L73698 46061
L73660 46080
L73623 46118
L73604 46174
L73604 46211
L73623 46267
L73641 46286
" />
<text x="76370" y="51442.9"
textLength="1876.55" font-size="524.934" lengthAdjust="spacingAndGlyphs"
text-anchor="middle" opacity="0">ADC_7</text>
<path d="M77194 51311
L77007 51311
" />
<path d="M77232 51424
L77101 51030
L76969 51424
" />
<path d="M76838 51424
L76838 51030
L76744 51030
L76688 51049
L76651 51086
L76632 51124
L76613 51199
L76613 51255
L76632 51330
L76651 51367
L76688 51405
L76744 51424
L76838 51424
" />
<path d="M76220 51386
L76238 51405
L76295 51424
L76332 51424
L76388 51405
L76426 51367
L76444 51330
L76463 51255
L76463 51199
L76444 51124
L76426 51086
L76388 51049
L76332 51030
L76295 51030
L76238 51049
L76220 51067
" />
<path d="M76145 51461
L75845 51461
" />
<path d="M75788 51030
L75526 51030
L75695 51424
" />
<text x="76353" y="50441.9"
textLength="1876.55" font-size="524.934" lengthAdjust="spacingAndGlyphs"
text-anchor="middle" opacity="0">ADC_6</text>
<path d="M77177 50310
L76990 50310
" />
<path d="M77215 50423
L77084 50029
L76952 50423
" />
<path d="M76821 50423
L76821 50029
L76727 50029
L76671 50048
L76634 50085
L76615 50123
L76596 50198
L76596 50254
L76615 50329
L76634 50366
L76671 50404
L76727 50423
L76821 50423
" />
<path d="M76203 50385
L76221 50404
L76278 50423
L76315 50423
L76371 50404
L76409 50366
L76427 50329
L76446 50254
L76446 50198
L76427 50123
L76409 50085
L76371 50048
L76315 50029
L76278 50029
L76221 50048
L76203 50066
" />
<path d="M76128 50460
L75828 50460
" />
<path d="M75565 50029
L75640 50029
L75678 50048
L75696 50066
L75734 50123
L75753 50198
L75753 50348
L75734 50385
L75715 50404
L75678 50423
L75603 50423
L75565 50404
L75546 50385
L75528 50348
L75528 50254
L75546 50216
L75565 50198
L75603 50179
L75678 50179
L75715 50198
L75734 50216
L75753 50254
" />
<text x="72264" y="54552.9"
textLength="2532.71" font-size="524.934" lengthAdjust="spacingAndGlyphs"
text-anchor="middle" opacity="0">CRYSTAL</text>
<path d="M73173 54496
L73192 54515
L73248 54534
L73285 54534
L73341 54515
L73379 54477
L73398 54440
L73416 54365
L73416 54309
L73398 54234
L73379 54196
L73341 54159
L73285 54140
L73248 54140
L73192 54159
L73173 54177
" />
<path d="M72779 54534
L72910 54346
" />
<path d="M73004 54534
L73004 54140
L72854 54140
L72817 54159
L72798 54177
L72779 54215
L72779 54271
L72798 54309
L72817 54327
L72854 54346
L73004 54346
" />
<path d="M72535 54346
L72535 54534
" />
<path d="M72667 54140
L72535 54346
L72404 54140
" />
<path d="M72292 54515
L72235 54534
L72142 54534
L72104 54515
L72085 54496
L72067 54459
L72067 54421
L72085 54384
L72104 54365
L72142 54346
L72217 54327
L72254 54309
L72273 54290
L72292 54252
L72292 54215
L72273 54177
L72254 54159
L72217 54140
L72123 54140
L72067 54159
" />
<path d="M71954 54140
L71729 54140
" />
<path d="M71842 54534
L71842 54140
" />
<path d="M71617 54421
L71429 54421
" />
<path d="M71654 54534
L71523 54140
L71392 54534
" />
<path d="M71073 54534
L71261 54534
L71261 54140
" />
<g transform="rotate(90 66732 53701)">
<text x="66732" y="53897.9"
textLength="1032.9" font-size="524.934" lengthAdjust="spacingAndGlyphs"
text-anchor="middle" opacity="0">SPI</text>
</g>
<path d="M66891 53297
L66910 53354
L66910 53447
L66891 53485
L66872 53504
L66835 53522
L66797 53522
L66760 53504
L66741 53485
L66722 53447
L66703 53372
L66685 53335
L66666 53316
L66628 53297
L66591 53297
L66553 53316
L66535 53335
L66516 53372
L66516 53466
L66535 53522
" />
<path d="M66910 53691
L66516 53691
L66516 53841
L66535 53879
L66553 53897
L66591 53916
L66647 53916
L66685 53897
L66703 53879
L66722 53841
L66722 53691
" />
<path d="M66910 54085
L66516 54085
" />
<g transform="rotate(90 65270 47288)">
<text x="65270" y="47484.9"
textLength="1201.63" font-size="524.934" lengthAdjust="spacingAndGlyphs"
text-anchor="middle" opacity="0">VCC</text>
</g>
<path d="M65054 46763
L65448 46894
L65054 47025
" />
<path d="M65410 47381
L65429 47362
L65448 47306
L65448 47269
L65429 47213
L65391 47175
L65354 47156
L65279 47138
L65223 47138
L65148 47156
L65110 47175
L65073 47213
L65054 47269
L65054 47306
L65073 47362
L65091 47381
" />
<path d="M65410 47775
L65429 47756
L65448 47700
L65448 47662
L65429 47606
L65391 47569
L65354 47550
L65279 47531
L65223 47531
L65148 47550
L65110 47569
L65073 47606
L65054 47662
L65054 47700
L65073 47756
L65091 47775
" />
<text x="68718" y="48780.9"
textLength="1501.59" font-size="524.934" lengthAdjust="spacingAndGlyphs"
text-anchor="middle" opacity="0">AREF</text>
<path d="M69355 48649
L69167 48649
" />
<path d="M69392 48762
L69261 48368
L69130 48762
" />
<path d="M68774 48762
L68905 48574
" />
<path d="M68999 48762
L68999 48368
L68849 48368
L68811 48387
L68792 48405
L68774 48443
L68774 48499
L68792 48537
L68811 48555
L68849 48574
L68999 48574
" />
<path d="M68605 48555
L68474 48555
" />
<path d="M68418 48762
L68605 48762
L68605 48368
L68418 48368
" />
<path d="M68118 48555
L68249 48555
" />
<path d="M68249 48762
L68249 48368
L68061 48368
" />
<text x="68717" y="49774.9"
textLength="1539.09" font-size="524.934" lengthAdjust="spacingAndGlyphs"
text-anchor="middle" opacity="0">AVCC</text>
<path d="M69373 49643
L69185 49643
" />
<path d="M69410 49756
L69279 49362
L69148 49756
" />
<path d="M69073 49362
L68941 49756
L68810 49362
" />
<path d="M68454 49718
L68473 49737
L68529 49756
L68567 49756
L68623 49737
L68660 49699
L68679 49662
L68698 49587
L68698 49531
L68679 49456
L68660 49418
L68623 49381
L68567 49362
L68529 49362
L68473 49381
L68454 49399
" />
<path d="M68060 49718
L68079 49737
L68135 49756
L68173 49756
L68229 49737
L68267 49699
L68285 49662
L68304 49587
L68304 49531
L68285 49456
L68267 49418
L68229 49381
L68173 49362
L68135 49362
L68079 49381
L68060 49399
" />
<g transform="rotate(90 61799 51861)">
<text x="61799" y="52057.9"
textLength="1201.63" font-size="524.934" lengthAdjust="spacingAndGlyphs"
text-anchor="middle" opacity="0">VCC</text>
</g>
<path d="M61583 51336
L61977 51467
L61583 51598
" />
<path d="M61939 51954
L61958 51935
L61977 51879
L61977 51842
L61958 51786
L61920 51748
L61883 51729
L61808 51711
L61752 51711
L61677 51729
L61639 51748
L61602 51786
L61583 51842
L61583 51879
L61602 51935
L61620 51954
" />
<path d="M61939 52348
L61958 52329
L61977 52273
L61977 52235
L61958 52179
L61920 52142
L61883 52123
L61808 52104
L61752 52104
L61677 52123
L61639 52142
L61602 52179
L61583 52235
L61583 52273
L61602 52329
L61620 52348
" />
<g transform="rotate(90 62782 39980)">
<text x="62782" y="40176.9"
textLength="1276.62" font-size="524.934" lengthAdjust="spacingAndGlyphs"
text-anchor="middle" opacity="0">GND</text>
</g>
<path d="M62585 39680
L62566 39642
L62566 39586
L62585 39530
L62622 39492
L62660 39473
L62735 39455
L62791 39455
L62866 39473
L62903 39492
L62941 39530
L62960 39586
L62960 39623
L62941 39680
L62922 39698
L62791 39698
L62791 39623
" />
<path d="M62960 39867
L62566 39867
L62960 40092
L62566 40092
" />
<path d="M62960 40279
L62566 40279
L62566 40373
L62585 40429
L62622 40467
L62660 40486
L62735 40504
L62791 40504
L62866 40486
L62903 40467
L62941 40429
L62960 40373
L62960 40279
" />
<text x="76381" y="38260.9"
textLength="3245.13" font-size="524.934" lengthAdjust="spacingAndGlyphs"
text-anchor="middle" opacity="0">TWI_PullUp</text>
<path d="M77927 37848
L77702 37848
" />
<path d="M77815 38242
L77815 37848
" />
<path d="M77608 37848
L77515 38242
L77440 37960
L77365 38242
L77271 37848
" />
<path d="M77121 38242
L77121 37848
" />
<path d="M77027 38279
L76727 38279
" />
<path d="M76634 38242
L76634 37848
L76484 37848
L76446 37867
L76427 37885
L76409 37923
L76409 37979
L76427 38017
L76446 38035
L76484 38054
L76634 38054
" />
<path d="M76071 37979
L76071 38242
" />
<path d="M76240 37979
L76240 38185
L76221 38223
L76184 38242
L76127 38242
L76090 38223
L76071 38204
" />
<path d="M75827 38242
L75865 38223
L75884 38185
L75884 37848
" />
<path d="M75621 38242
L75659 38223
L75677 38185
L75677 37848
" />
<path d="M75471 37848
L75471 38167
L75452 38204
L75434 38223
L75396 38242
L75321 38242
L75284 38223
L75265 38204
L75246 38167
L75246 37848
" />
<path d="M75059 37979
L75059 38373
" />
<path d="M75059 37998
L75021 37979
L74946 37979
L74909 37998
L74890 38017
L74871 38054
L74871 38167
L74890 38204
L74909 38223
L74946 38242
L75021 38242
L75059 38223
" />
<g transform="rotate(90 72776 37194)">
<text x="72776" y="37390.9"
textLength="789.183" font-size="524.934" lengthAdjust="spacingAndGlyphs"
text-anchor="middle" opacity="0">Rx</text>
</g>
<path d="M72954 37156
L72766 37025
" />
<path d="M72954 36931
L72560 36931
L72560 37081
L72579 37119
L72597 37137
L72635 37156
L72691 37156
L72729 37137
L72747 37119
L72766 37081
L72766 36931
" />
<path d="M72954 37287
L72691 37493
" />
<path d="M72691 37287
L72954 37493
" />
<g transform="rotate(90 71774 37241)">
<text x="71774" y="37437.9"
textLength="695.444" font-size="524.934" lengthAdjust="spacingAndGlyphs"
text-anchor="middle" opacity="0">Tx</text>
</g>
<path d="M71558 36969
L71558 37194
" />
<path d="M71952 37081
L71558 37081
" />
<path d="M71952 37287
L71689 37494
" />
<path d="M71689 37287
L71952 37494
" />
<g transform="rotate(90 70778 38269)">
<text x="70778" y="38465.9"
textLength="1520.34" font-size="524.934" lengthAdjust="spacingAndGlyphs"
text-anchor="middle" opacity="0">UART</text>
</g>
<path d="M70562 37640
L70881 37640
L70918 37659
L70937 37678
L70956 37715
L70956 37790
L70937 37828
L70918 37847
L70881 37865
L70562 37865
" />
<path d="M70843 38034
L70843 38222
" />
<path d="M70956 37997
L70562 38128
L70956 38259
" />
<path d="M70956 38615
L70768 38484
" />
<path d="M70956 38390
L70562 38390
L70562 38540
L70581 38578
L70599 38597
L70637 38615
L70693 38615
L70731 38597
L70749 38578
L70768 38540
L70768 38390
" />
<path d="M70562 38728
L70562 38953
" />
<path d="M70956 38840
L70562 38840
" />
<g >
</g>
<g >
</g>
<g >
</g>
<g >
</g>
<g >
</g>
<g >
</g>
<g >
</g>
<g >
</g>
<g >
</g>
<g >
</g>
<g >
</g>
<g >
</g>
<g >
</g>
<g >
</g>
<g >
</g>
<g >
</g>
<g >
</g>
<g >
</g>
<g >
</g>
<g >
</g>
<g >
</g>
<g >
</g>
<g >
</g>
<g >
</g>
<g >
</g>
<g >
</g>
</g> 
</svg>
